<?xml version="1.0" encoding="utf-8"?>
<svg version="1.1" xmlns:xlink="http://www.w3.org/1999/xlink" width="18px" height="18px" preserveAspectRatio="xMinYMid meet" viewBox="206 468  18 16" xmlns="http://www.w3.org/2000/svg">
  <defs>
    <mask fill="white" id="clip176">
      <path d="M 227.8265 503  L 258.1735 503  L 258.1735 531  L 227.8265 531  Z M 206 464  L 325 464  L 325 531  L 206 531  Z " fill-rule="evenodd" />
    </mask>
  </defs>
  <path d="M 215.5 474  L 215.5 512  A 5 5 0 0 0 220.5 517.5 L 315 517.5  " stroke-width="1" stroke="#555555" fill="none" mask="url(#clip176)" />
  <path d="M 215.5 473  A 3 3 0 0 0 212.5 476 A 3 3 0 0 0 215.5 479 A 3 3 0 0 0 218.5 476 A 3 3 0 0 0 215.5 473 Z M 313 514.5  A 3 3 0 0 0 310 517.5 A 3 3 0 0 0 313 520.5 A 3 3 0 0 0 316 517.5 A 3 3 0 0 0 313 514.5 Z " fill-rule="nonzero" fill="#555555" stroke="none" mask="url(#clip176)" />
</svg>