<?xml version="1.0" encoding="utf-8"?>
<svg version="1.1" xmlns:xlink="http://www.w3.org/1999/xlink" width="18px" height="18px" preserveAspectRatio="xMinYMid meet" viewBox="270 329  18 16" xmlns="http://www.w3.org/2000/svg">
  <defs>
    <mask fill="white" id="clip356">
      <path d="M 290.8265 323  L 321.1735 323  L 321.1735 351  L 290.8265 351  Z M 267 323  L 344 323  L 344 351  L 267 351  Z " fill-rule="evenodd" />
    </mask>
  </defs>
  <path d="M 290.8265 337.5  L 277 337.5  M 321.1735 337.5  L 334 337.5  " stroke-width="1" stroke="#555555" fill="none" />
  <path d="M 279 334.5  A 3 3 0 0 0 276 337.5 A 3 3 0 0 0 279 340.5 A 3 3 0 0 0 282 337.5 A 3 3 0 0 0 279 334.5 Z M 332 334.5  A 3 3 0 0 0 329 337.5 A 3 3 0 0 0 332 340.5 A 3 3 0 0 0 335 337.5 A 3 3 0 0 0 332 334.5 Z " fill-rule="nonzero" fill="#555555" stroke="none" mask="url(#clip356)" />
</svg>