<?xml version="1.0" encoding="utf-8"?>
<svg version="1.1" xmlns:xlink="http://www.w3.org/1999/xlink" width="18px" height="18px" preserveAspectRatio="xMinYMid meet" viewBox="206 411  18 16" xmlns="http://www.w3.org/2000/svg">
  <defs>
    <mask fill="white" id="clip373">
      <path d="M 201.8935 376  L 228.1065 376  L 228.1065 404  L 201.8935 404  Z M 201.8935 349  L 228.1065 349  L 228.1065 431  L 201.8935 431  Z " fill-rule="evenodd" />
    </mask>
  </defs>
  <path d="M 215.5 376  L 215.5 359  M 215.5 404  L 215.5 421  " stroke-width="1" stroke="#555555" fill="none" />
  <path d="M 215.5 358  A 3 3 0 0 0 212.5 361 A 3 3 0 0 0 215.5 364 A 3 3 0 0 0 218.5 361 A 3 3 0 0 0 215.5 358 Z M 215.5 416  A 3 3 0 0 0 212.5 419 A 3 3 0 0 0 215.5 422 A 3 3 0 0 0 218.5 419 A 3 3 0 0 0 215.5 416 Z " fill-rule="nonzero" fill="#555555" stroke="none" mask="url(#clip373)" />
</svg>