<?xml version="1.0" encoding="utf-8"?>
<svg version="1.1" xmlns:xlink="http://www.w3.org/1999/xlink" width="32px" height="32px" preserveAspectRatio="xMinYMid meet" viewBox="489 200  32 30" xmlns="http://www.w3.org/2000/svg">
  <defs>
    <mask fill="white" id="clip55">
      <path d="M 488.8265 175  L 519.1735 175  L 519.1735 203  L 488.8265 203  Z M 488.8265 153  L 521 153  L 521 232  L 488.8265 232  Z " fill-rule="evenodd" />
    </mask>
  </defs>
  <path d="M 504.5 163  L 504.5 188.5  A 0.5 0.5 0 0 0 505 189.5 A 0.5 0.5 0 0 1 505.5 190 L 505.5 215  " stroke-width="1" stroke="#555555" fill="none" mask="url(#clip55)" />
  <path d="M 504.5 162  A 3 3 0 0 0 501.5 165 A 3 3 0 0 0 504.5 168 A 3 3 0 0 0 507.5 165 A 3 3 0 0 0 504.5 162 Z M 499.5 209.3  L 505.5 216  L 511.5 209.3  L 505.5 211.6  L 499.5 209.3  Z " fill-rule="nonzero" fill="#555555" stroke="none" mask="url(#clip55)" />
</svg>