<?xml version="1.0" encoding="utf-8"?>
<svg version="1.1" xmlns:xlink="http://www.w3.org/1999/xlink" width="40px" height="10px" preserveAspectRatio="xMinYMid meet" viewBox="723 134  40 8" xmlns="http://www.w3.org/2000/svg">
  <defs>
    <mask fill="white" id="clip139">
      <path d="M 743.197 121  L 772.803 121  L 772.803 149  L 743.197 149  Z M 714 118  L 810 118  L 810 150  L 714 150  Z " fill-rule="evenodd" />
    </mask>
  </defs>
  <path d="M 724 138.5  L 756 138.5  A 2 2 0 0 0 758.5 136.5 A 2 2 0 0 1 760.5 134.5 L 793 134.5  " stroke-width="1" stroke="#555555" fill="none" mask="url(#clip139)" />
  <path d="M 726 135.5  A 3 3 0 0 0 723 138.5 A 3 3 0 0 0 726 141.5 A 3 3 0 0 0 729 138.5 A 3 3 0 0 0 726 135.5 Z M 787.3 140.5  L 794 134.5  L 787.3 128.5  L 789.6 134.5  L 787.3 140.5  Z " fill-rule="nonzero" fill="#555555" stroke="none" mask="url(#clip139)" />
</svg>