<?xml version="1.0" encoding="utf-8"?>
<svg version="1.1" xmlns:xlink="http://www.w3.org/1999/xlink" width="40px" height="10px" preserveAspectRatio="xMinYMid meet" viewBox="15 2916  40 8" xmlns="http://www.w3.org/2000/svg">
  <path d="M 115 2931.5  L 55 2931.5  A 5 5 0 0 1 50.5 2926.5 L 50.5 2925  A 5 5 0 0 0 45.5 2920.5 L 25 2920.5  A 5 5 0 0 0 20.5 2925.5 L 20.5 2935  " stroke-width="1" stroke="#ff3399" fill="none" />
  <path d="M 113 2928.5  A 3 3 0 0 0 110 2931.5 A 3 3 0 0 0 113 2934.5 A 3 3 0 0 0 116 2931.5 A 3 3 0 0 0 113 2928.5 Z " fill-rule="nonzero" fill="#ff3399" stroke="none" />
</svg>