<?xml version="1.0" encoding="utf-8"?>
<svg version="1.1" xmlns:xlink="http://www.w3.org/1999/xlink" width="66px" height="60px" xmlns="http://www.w3.org/2000/svg">
  <g transform="matrix(1 0 0 1 -1633 -2 )">
    <path d="M 1633 2  L 1699 2  L 1699 62  L 1633 62  L 1633 2  " fill-rule="nonzero" fill="#cccccc" stroke="none" />
    <path d="M 1637 6  L 1695 6  L 1695 58  L 1637 58  L 1637 6  " fill-rule="nonzero" fill="#ffffff" stroke="none" />
    <path d="M 1671.82 20  C 1669.3 20  1667.32 18.02  1667.32 15.5  C 1667.32 12.98  1669.3 11  1671.82 11  C 1674.34 11  1676.32 12.98  1676.32 15.5  C 1676.32 18.02  1674.34 20  1671.82 20  " fill-rule="nonzero" fill="#cccccc" stroke="none" />
    <path d="M 1639 57  L 1639 30.05  L 1652.75 17.8  L 1672 30.2727272727273  L 1683 25.15  L 1694 30.2727272727273  L 1694 57  L 1639 57  " fill-rule="nonzero" fill="#169bd5" stroke="none" />
  </g>
</svg>