<?xml version="1.0" encoding="utf-8"?>
<svg version="1.1" xmlns:xlink="http://www.w3.org/1999/xlink" width="40px" height="40px" xmlns="http://www.w3.org/2000/svg">
  <defs>
    <filter x="19px" y="450px" width="40px" height="40px" filterUnits="userSpaceOnUse" id="filter643">
      <feOffset dx="1" dy="1" in="SourceAlpha" result="shadowOffsetInner" />
      <feGaussianBlur stdDeviation="2.5" in="shadowOffsetInner" result="shadowGaussian" />
      <feComposite in2="shadowGaussian" operator="atop" in="SourceAlpha" result="shadowComposite" />
      <feColorMatrix type="matrix" values="0 0 0 0 0  0 0 0 0 0  0 0 0 0 0  0 0 0 0.698039215686274 0  " in="shadowComposite" />
    </filter>
    <g id="widget644">
      <path d="M 38 454  C 46.4 454  53 460.6  53 469  C 53 477.4  46.4 484  38 484  C 29.6 484  23 477.4  23 469  C 23 460.6  29.6 454  38 454  Z " fill-rule="nonzero" fill="#009dd9" stroke="none" />
      <path d="M 38 454.5  C 46.12 454.5  52.5 460.88  52.5 469  C 52.5 477.12  46.12 483.5  38 483.5  C 29.88 483.5  23.5 477.12  23.5 469  C 23.5 460.88  29.88 454.5  38 454.5  Z " stroke-width="1" stroke="#ffffff" fill="none" />
    </g>
  </defs>
  <g transform="matrix(1 0 0 1 -19 -450 )">
    <use xlink:href="#widget644" filter="url(#filter643)" />
    <use xlink:href="#widget644" />
  </g>
</svg>