<?xml version="1.0" encoding="utf-8"?>
<svg version="1.1" xmlns:xlink="http://www.w3.org/1999/xlink" width="10px" height="18px" preserveAspectRatio="xMidYMin meet" viewBox="46 3215  8 18" xmlns="http://www.w3.org/2000/svg">
  <path d="M 115 3228.5  L 54 3228.5  A 4 4 0 0 1 50.5 3224.5 A 4 4 0 0 0 46.5 3220.5 L 25 3220.5  A 5 5 0 0 0 20.5 3225.5 L 20.5 3232  " stroke-width="1" stroke="#ff3399" fill="none" />
  <path d="M 113 3225.5  A 3 3 0 0 0 110 3228.5 A 3 3 0 0 0 113 3231.5 A 3 3 0 0 0 116 3228.5 A 3 3 0 0 0 113 3225.5 Z " fill-rule="nonzero" fill="#ff3399" stroke="none" />
</svg>