<?xml version="1.0" encoding="utf-8"?>
<svg version="1.1" xmlns:xlink="http://www.w3.org/1999/xlink" width="28px" height="28px" xmlns="http://www.w3.org/2000/svg">
  <defs>
    <filter x="660px" y="1764px" width="28px" height="28px" filterUnits="userSpaceOnUse" id="filter168">
      <feOffset dx="0" dy="1" in="SourceAlpha" result="shadowOffsetInner" />
      <feGaussianBlur stdDeviation="1" in="shadowOffsetInner" result="shadowGaussian" />
      <feComposite in2="shadowGaussian" operator="atop" in="SourceAlpha" result="shadowComposite" />
      <feColorMatrix type="matrix" values="0 0 0 0 0  0 0 0 0 0  0 0 0 0 0  0 0 0 0.349019607843137 0  " in="shadowComposite" />
    </filter>
    <g id="widget169">
      <path d="M 674 1765  C 680.72 1765  686 1770.28  686 1777  C 686 1783.72  680.72 1789  674 1789  C 667.28 1789  662 1783.72  662 1777  C 662 1770.28  667.28 1765  674 1765  Z " fill-rule="nonzero" fill="#ffffff" stroke="none" />
      <path d="M 674 1765.5  C 680.44 1765.5  685.5 1770.56  685.5 1777  C 685.5 1783.44  680.44 1788.5  674 1788.5  C 667.56 1788.5  662.5 1783.44  662.5 1777  C 662.5 1770.56  667.56 1765.5  674 1765.5  Z " stroke-width="1" stroke="#d9d9d9" fill="none" />
    </g>
  </defs>
  <g transform="matrix(1 0 0 1 -660 -1764 )">
    <use xlink:href="#widget169" filter="url(#filter168)" />
    <use xlink:href="#widget169" />
  </g>
</svg>