<?xml version="1.0" encoding="utf-8"?>
<svg version="1.1" xmlns:xlink="http://www.w3.org/1999/xlink" width="64px" height="64px" xmlns="http://www.w3.org/2000/svg">
  <g transform="matrix(1 0 0 1 -448 -1306 )">
    <path d="M 480 1306  C 497.92 1306  512 1320.08  512 1338  C 512 1355.92  497.92 1370  480 1370  C 462.08 1370  448 1355.92  448 1338  C 448 1320.08  462.08 1306  480 1306  Z " fill-rule="nonzero" fill="#e9e9e9" stroke="none" />
    <path d="M 480 1306.5  C 497.64 1306.5  511.5 1320.36  511.5 1338  C 511.5 1355.64  497.64 1369.5  480 1369.5  C 462.36 1369.5  448.5 1355.64  448.5 1338  C 448.5 1320.36  462.36 1306.5  480 1306.5  Z " stroke-width="1" stroke="#ffffff" fill="none" />
  </g>
</svg>