<?xml version="1.0" encoding="utf-8"?>
<svg version="1.1" xmlns:xlink="http://www.w3.org/1999/xlink" width="64px" height="64px" xmlns="http://www.w3.org/2000/svg">
  <g transform="matrix(1 0 0 1 -448 -1306 )">
    <path d="M 477.333511537484 1306.61306260062  C 478.22026999089 1306.53772771924  479.109897522075 1306.5  480 1306.5  C 497.39696961967 1306.5  511.5 1320.60303038033  511.5 1338  C 511.5 1355.39696961967  497.39696961967 1369.5  480 1369.5  C 462.60303038033 1369.5  448.5 1355.39696961967  448.5 1338  C 448.5 1332.63735536427  449.869029054164 1327.36633840497  452.473635776507 1322.68499647495  L 479.75 1338.43301270189  A 0.5 0.5 0 0 0 480.497470760719 1337.9497720971 L 477.333511537502 1306.61306260062  Z " fill-rule="nonzero" fill="#99d5fd" stroke="none" />
    <path d="M 477.333511537484 1306.61306260062  C 478.22026999089 1306.53772771924  479.109897522075 1306.5  480 1306.5  C 497.39696961967 1306.5  511.5 1320.60303038033  511.5 1338  C 511.5 1355.39696961967  497.39696961967 1369.5  480 1369.5  C 462.60303038033 1369.5  448.5 1355.39696961967  448.5 1338  C 448.5 1332.63735536427  449.869029054164 1327.36633840497  452.473635776507 1322.68499647495  L 479.75 1338.43301270189  A 0.5 0.5 0 0 0 480.497470760719 1337.9497720971 L 477.333511537502 1306.61306260062  Z " stroke-width="1" stroke="#ffffff" fill="none" />
  </g>
</svg>