<?xml version="1.0" encoding="utf-8"?>
<svg version="1.1" xmlns:xlink="http://www.w3.org/1999/xlink" width="39px" height="39px" xmlns="http://www.w3.org/2000/svg">
  <g transform="matrix(1 0 0 1 -460 -1318 )">
    <path d="M 479.5 1318  C 490.42 1318  499 1326.58  499 1337.5  C 499 1348.42  490.42 1357  479.5 1357  C 468.58 1357  460 1348.42  460 1337.5  C 460 1326.58  468.58 1318  479.5 1318  Z " fill-rule="nonzero" fill="#ffffff" stroke="none" />
    <path d="M 479.5 1318.5  C 490.14 1318.5  498.5 1326.86  498.5 1337.5  C 498.5 1348.14  490.14 1356.5  479.5 1356.5  C 468.86 1356.5  460.5 1348.14  460.5 1337.5  C 460.5 1326.86  468.86 1318.5  479.5 1318.5  Z " stroke-width="1" stroke="#ffffff" fill="none" />
  </g>
</svg>