<?xml version="1.0" encoding="utf-8"?>
<svg version="1.1" xmlns:xlink="http://www.w3.org/1999/xlink" width="64px" height="64px" xmlns="http://www.w3.org/2000/svg">
  <g transform="matrix(1 0 0 1 -683 -1306 )">
    <path d="M 712.333511537483 1306.61306260062  C 713.22026999089 1306.53772771924  714.109897522075 1306.5  715 1306.5  C 732.39696961967 1306.5  746.5 1320.60303038033  746.5 1338  C 746.5 1355.39696961967  732.39696961967 1369.5  715 1369.5  C 698.852014491797 1369.5  685.349015581785 1357.29642682772  683.672190417079 1341.28974163612  L 715.044318343823 1338.49803201142  A 0.5 0.5 0 0 0 715.497470760719 1337.9497720971 L 712.333511537502 1306.61306260062  Z " fill-rule="nonzero" fill="#0096fa" stroke="none" />
    <path d="M 712.333511537483 1306.61306260062  C 713.22026999089 1306.53772771924  714.109897522075 1306.5  715 1306.5  C 732.39696961967 1306.5  746.5 1320.60303038033  746.5 1338  C 746.5 1355.39696961967  732.39696961967 1369.5  715 1369.5  C 698.852014491797 1369.5  685.349015581785 1357.29642682772  683.672190417079 1341.28974163612  L 715.044318343823 1338.49803201142  A 0.5 0.5 0 0 0 715.497470760719 1337.9497720971 L 712.333511537502 1306.61306260062  Z " stroke-width="1" stroke="#ffffff" fill="none" />
  </g>
</svg>