<?xml version="1.0" encoding="utf-8"?>
<svg version="1.1" xmlns:xlink="http://www.w3.org/1999/xlink" width="8px" height="8px" xmlns="http://www.w3.org/2000/svg">
  <g transform="matrix(1 0 0 1 -564 -1634 )">
    <path d="M 568 1634  C 570.24 1634  572 1635.76  572 1638  C 572 1640.24  570.24 1642  568 1642  C 565.76 1642  564 1640.24  564 1638  C 564 1635.76  565.76 1634  568 1634  Z " fill-rule="nonzero" fill="#1890ff" stroke="none" />
    <path d="M 568 1634.5  C 569.96 1634.5  571.5 1636.04  571.5 1638  C 571.5 1639.96  569.96 1641.5  568 1641.5  C 566.04 1641.5  564.5 1639.96  564.5 1638  C 564.5 1636.04  566.04 1634.5  568 1634.5  Z " stroke-width="1" stroke="#ffffff" fill="none" />
  </g>
</svg>