<?xml version="1.0" encoding="utf-8"?>
<svg version="1.1" xmlns:xlink="http://www.w3.org/1999/xlink" width="32px" height="25px" xmlns="http://www.w3.org/2000/svg">
  <g transform="matrix(1 0 0 1 -1459 -166 )">
    <path d="M 29.5446428571429 22.55859375  C 29.6577380952381 22.4461410984849  29.7142857142857 22.3129734848485  29.7142857142857 22.1590909090909  L 29.7142857142857 8.52272727272727  C 29.3333333333333 8.94886363636363  28.9226190476191 9.33948863636363  28.4821428571429 9.69460227272727  C 25.2916666666667 12.1330492424242  22.7559523809524 14.1335227272727  20.875 15.6960227272727  C 20.2678571428571 16.2050189393939  19.7738095238095 16.6015625  19.3928571428571 16.8856534090909  C 19.0119047619048 17.1697443181818  18.4970238095238 17.4567945075758  17.8482142857143 17.7468039772727  C 17.1994047619048 18.0368134469697  16.5892857142857 18.1818181818182  16.0178571428571 18.1818181818182  L 16 18.1818181818182  L 15.9821428571429 18.1818181818182  C 15.4107142857143 18.1818181818182  14.8005952380952 18.0368134469697  14.1517857142857 17.7468039772727  C 13.5029761904762 17.4567945075758  12.9880952380952 17.1697443181818  12.6071428571429 16.8856534090909  C 12.2261904761905 16.6015625  11.7321428571429 16.2050189393939  11.125 15.6960227272727  C 9.24404761904762 14.1335227272727  6.70833333333333 12.1330492424242  3.51785714285714 9.69460227272727  C 3.07738095238095 9.33948863636363  2.66666666666667 8.94886363636363  2.28571428571429 8.52272727272727  L 2.28571428571429 22.1590909090909  C 2.28571428571429 22.3129734848485  2.34226190476191 22.4461410984849  2.45535714285714 22.55859375  C 2.56845238095238 22.6710464015151  2.70238095238095 22.7272727272727  2.85714285714286 22.7272727272727  L 29.1428571428571 22.7272727272727  C 29.297619047619 22.7272727272727  29.4315476190476 22.6710464015151  29.5446428571429 22.55859375  Z M 28.8839285714286 5.83274147727273  C 29.4375 4.97455018939394  29.7142857142857 4.19625946969697  29.7142857142857 3.49786931818182  L 29.7142857142857 3.30255681818182  L 29.7142857142857 3.06285511363636  C 29.7142857142857 3.06285511363636  29.7113095238095 2.98591382575757  29.7053571428571 2.83203125  C 29.6994047619048 2.67814867424242  29.6815476190476 2.60416666666666  29.6517857142857 2.61008522727273  C 29.6220238095238 2.61600378787879  29.5892857142857 2.56273674242424  29.5535714285714 2.45028409090909  C 29.5178571428571 2.33783143939394  29.4642857142857 2.29344223484848  29.3928571428571 2.31711647727273  C 29.3214285714286 2.34079071969697  29.2380952380952 2.32599431818182  29.1428571428571 2.27272727272727  L 2.85714285714286 2.27272727272727  C 2.70238095238095 2.27272727272727  2.56845238095238 2.32895359848485  2.45535714285714 2.44140625  C 2.34226190476191 2.55385890151515  2.28571428571429 2.68702651515151  2.28571428571429 2.84090909090909  C 2.28571428571429 4.82954545454546  3.16071428571429 6.51041666666666  4.91071428571429 7.88352272727273  C 7.20833333333333 9.68276515151515  9.5952380952381 11.5589488636364  12.0714285714286 13.5120738636364  C 12.1428571428571 13.571259469697  12.3511904761905 13.7458570075758  12.6964285714286 14.0358664772727  C 13.0416666666667 14.3258759469697  13.3154761904762 14.547821969697  13.5178571428571 14.7017045454545  C 13.7202380952381 14.8555871212121  13.985119047619 15.042021780303  14.3125 15.2610085227273  C 14.639880952381 15.4799952651515  14.9404761904762 15.6427556818182  15.2142857142857 15.7492897727273  C 15.4880952380952 15.8558238636364  15.7440476190476 15.9090909090909  15.9821428571429 15.9090909090909  L 16 15.9090909090909  L 16.0178571428571 15.9090909090909  C 16.2559523809524 15.9090909090909  16.5119047619048 15.8558238636364  16.7857142857143 15.7492897727273  C 17.0595238095238 15.6427556818182  17.360119047619 15.4799952651515  17.6875 15.2610085227273  C 18.014880952381 15.042021780303  18.2797619047619 14.8555871212121  18.4821428571429 14.7017045454545  C 18.6845238095238 14.547821969697  18.9583333333333 14.3258759469697  19.3035714285714 14.0358664772727  C 19.6488095238095 13.7458570075758  19.8571428571429 13.571259469697  19.9285714285714 13.5120738636364  C 22.4047619047619 11.5589488636364  24.7916666666667 9.68276515151515  27.0892857142857 7.88352272727273  C 27.7321428571429 7.37452651515151  28.3303571428571 6.69093276515151  28.8839285714286 5.83274147727273  Z M 31.1607142857143 0.834517045454544  C 31.7202380952381 1.39086174242424  32 2.05965909090909  32 2.84090909090909  L 32 22.1590909090909  C 32 22.9403409090909  31.7202380952381 23.6091382575758  31.1607142857143 24.1654829545455  C 30.6011904761905 24.7218276515151  29.9285714285714 25  29.1428571428571 25  L 2.85714285714286 25  C 2.07142857142857 25  1.39880952380952 24.7218276515151  0.839285714285714 24.1654829545455  C 0.279761904761905 23.6091382575758  0 22.9403409090909  0 22.1590909090909  L 0 2.84090909090909  C 0 2.05965909090909  0.279761904761905 1.39086174242424  0.839285714285714 0.834517045454544  C 1.39880952380952 0.278172348484845  2.07142857142857 0  2.85714285714286 0  L 29.1428571428571 0  C 29.9285714285714 0  30.6011904761905 0.278172348484845  31.1607142857143 0.834517045454544  Z " fill-rule="nonzero" fill="#000000" stroke="none" transform="matrix(1 0 0 1 1459 166 )" />
  </g>
</svg>