<?xml version="1.0" encoding="utf-8"?>
<svg version="1.1" xmlns:xlink="http://www.w3.org/1999/xlink" width="40px" height="40px" xmlns="http://www.w3.org/2000/svg">
  <defs>
    <filter x="1253px" y="158px" width="40px" height="40px" filterUnits="userSpaceOnUse" id="filter165">
      <feOffset dx="1" dy="1" in="SourceAlpha" result="shadowOffsetInner" />
      <feGaussianBlur stdDeviation="2.5" in="shadowOffsetInner" result="shadowGaussian" />
      <feComposite in2="shadowGaussian" operator="atop" in="SourceAlpha" result="shadowComposite" />
      <feColorMatrix type="matrix" values="0 0 0 0 0  0 0 0 0 0  0 0 0 0 0  0 0 0 0.698039215686274 0  " in="shadowComposite" />
    </filter>
    <g id="widget166">
      <path d="M 1272 162  C 1280.4 162  1287 168.6  1287 177  C 1287 185.4  1280.4 192  1272 192  C 1263.6 192  1257 185.4  1257 177  C 1257 168.6  1263.6 162  1272 162  Z " fill-rule="nonzero" fill="#d9001b" stroke="none" />
      <path d="M 1272 162.5  C 1280.12 162.5  1286.5 168.88  1286.5 177  C 1286.5 185.12  1280.12 191.5  1272 191.5  C 1263.88 191.5  1257.5 185.12  1257.5 177  C 1257.5 168.88  1263.88 162.5  1272 162.5  Z " stroke-width="1" stroke="#ffffff" fill="none" />
    </g>
  </defs>
  <g transform="matrix(1 0 0 1 -1253 -158 )">
    <use xlink:href="#widget166" filter="url(#filter165)" />
    <use xlink:href="#widget166" />
  </g>
</svg>