<?xml version="1.0" encoding="utf-8"?>
<svg version="1.1" xmlns:xlink="http://www.w3.org/1999/xlink" width="32px" height="32px" preserveAspectRatio="xMinYMid meet" viewBox="604 123  32 30" xmlns="http://www.w3.org/2000/svg">
  <defs>
    <mask fill="white" id="clip211">
      <path d="M 569.197 123  L 598.803 123  L 598.803 151  L 569.197 151  Z M 539 122  L 637 122  L 637 154  L 539 154  Z " fill-rule="evenodd" />
    </mask>
  </defs>
  <path d="M 549 134.5  L 582 134.5  A 2 2 0 0 1 584.5 136.5 A 2 2 0 0 0 586.5 138.5 L 620 138.5  " stroke-width="1" stroke="#555555" fill="none" mask="url(#clip211)" />
  <path d="M 551 131.5  A 3 3 0 0 0 548 134.5 A 3 3 0 0 0 551 137.5 A 3 3 0 0 0 554 134.5 A 3 3 0 0 0 551 131.5 Z M 614.3 144.5  L 621 138.5  L 614.3 132.5  L 616.6 138.5  L 614.3 144.5  Z " fill-rule="nonzero" fill="#555555" stroke="none" mask="url(#clip211)" />
</svg>