<?xml version="1.0" encoding="utf-8"?>
<svg version="1.1" xmlns:xlink="http://www.w3.org/1999/xlink" width="18px" height="18px" preserveAspectRatio="xMinYMid meet" viewBox="663 166  18 16" xmlns="http://www.w3.org/2000/svg">
  <defs>
    <mask fill="white" id="clip218">
      <path d="M 656.8265 204  L 687.1735 204  L 687.1735 232  L 656.8265 232  Z M 656 162  L 688 162  L 688 282  L 656 282  Z " fill-rule="evenodd" />
    </mask>
  </defs>
  <path d="M 672.5 204  L 672.5 172  M 672.5 232  L 672.5 265  " stroke-width="1" stroke="#555555" fill="none" />
  <path d="M 672.5 171  A 3 3 0 0 0 669.5 174 A 3 3 0 0 0 672.5 177 A 3 3 0 0 0 675.5 174 A 3 3 0 0 0 672.5 171 Z M 666.5 259.3  L 672.5 266  L 678.5 259.3  L 672.5 261.6  L 666.5 259.3  Z " fill-rule="nonzero" fill="#555555" stroke="none" mask="url(#clip218)" />
</svg>