<?xml version="1.0" encoding="utf-8"?>
<svg version="1.1" xmlns:xlink="http://www.w3.org/1999/xlink" width="10px" height="11px" preserveAspectRatio="xMidYMin meet" viewBox="913 273  8 11" xmlns="http://www.w3.org/2000/svg">
  <defs>
    <mask fill="white" id="clip551">
      <path d="M 901.8265 265  L 932.1735 265  L 932.1735 293  L 901.8265 293  Z M 879 263  L 963 263  L 963 295  L 879 295  Z " fill-rule="evenodd" />
    </mask>
  </defs>
  <path d="M 889 278.5  L 916.5 278.5  A 0.5 0.5 0 0 1 917.5 279 A 0.5 0.5 0 0 0 918 279.5 L 946 279.5  " stroke-width="1" stroke="#555555" fill="none" mask="url(#clip551)" />
  <path d="M 891 275.5  A 3 3 0 0 0 888 278.5 A 3 3 0 0 0 891 281.5 A 3 3 0 0 0 894 278.5 A 3 3 0 0 0 891 275.5 Z M 940.3 285.5  L 947 279.5  L 940.3 273.5  L 942.6 279.5  L 940.3 285.5  Z " fill-rule="nonzero" fill="#555555" stroke="none" mask="url(#clip551)" />
</svg>