<?xml version="1.0" encoding="utf-8"?>
<svg version="1.1" xmlns:xlink="http://www.w3.org/1999/xlink" width="10px" height="48px" preserveAspectRatio="xMidYMin meet" viewBox="834 158  8 48" xmlns="http://www.w3.org/2000/svg">
  <path d="M 838.5 159  L 838.5 200.5  A 0.5 0.5 0 0 1 838 201.5 A 0.5 0.5 0 0 0 837.5 202 L 837.5 244  " stroke-width="1" stroke="#555555" fill="none" />
  <path d="M 838.5 158  A 3 3 0 0 0 835.5 161 A 3 3 0 0 0 838.5 164 A 3 3 0 0 0 841.5 161 A 3 3 0 0 0 838.5 158 Z M 831.5 238.3  L 837.5 245  L 843.5 238.3  L 837.5 240.6  L 831.5 238.3  Z " fill-rule="nonzero" fill="#555555" stroke="none" />
</svg>