<?xml version="1.0" encoding="utf-8"?>
<svg version="1.1" xmlns:xlink="http://www.w3.org/1999/xlink" width="19px" height="10px" preserveAspectRatio="xMinYMid meet" viewBox="1085 406  19 8" xmlns="http://www.w3.org/2000/svg">
  <path d="M 1065 409.5  L 1089.5 409.5  A 0.5 0.5 0 0 1 1090.5 410 A 0.5 0.5 0 0 0 1091 410.5 L 1103 410.5  " stroke-width="1" stroke="#555555" fill="none" />
  <path d="M 1067 406.5  A 3 3 0 0 0 1064 409.5 A 3 3 0 0 0 1067 412.5 A 3 3 0 0 0 1070 409.5 A 3 3 0 0 0 1067 406.5 Z M 1097.3 416.5  L 1104 410.5  L 1097.3 404.5  L 1099.6 410.5  L 1097.3 416.5  Z " fill-rule="nonzero" fill="#555555" stroke="none" />
</svg>