<?xml version="1.0" encoding="utf-8"?>
<svg version="1.1" xmlns:xlink="http://www.w3.org/1999/xlink" width="18px" height="18px" preserveAspectRatio="xMinYMid meet" viewBox="669 233  18 16" xmlns="http://www.w3.org/2000/svg">
  <defs>
    <mask fill="white" id="clip906">
      <path d="M 662.8265 260  L 693.1735 260  L 693.1735 288  L 662.8265 288  Z M 662 229  L 694 229  L 694 326  L 662 326  Z " fill-rule="evenodd" />
    </mask>
  </defs>
  <path d="M 678.5 260  L 678.5 239  M 678.5 288  L 678.5 309  " stroke-width="1" stroke="#555555" fill="none" />
  <path d="M 678.5 238  A 3 3 0 0 0 675.5 241 A 3 3 0 0 0 678.5 244 A 3 3 0 0 0 681.5 241 A 3 3 0 0 0 678.5 238 Z M 672.5 303.3  L 678.5 310  L 684.5 303.3  L 678.5 305.6  L 672.5 303.3  Z " fill-rule="nonzero" fill="#555555" stroke="none" mask="url(#clip906)" />
</svg>