<?xml version="1.0" encoding="utf-8"?>
<svg version="1.1" xmlns:xlink="http://www.w3.org/1999/xlink" width="10px" height="170px" preserveAspectRatio="xMidYMin meet" viewBox="1106 335  8 170" xmlns="http://www.w3.org/2000/svg">
  <path d="M 1309 500.5  L 1115 500.5  A 5 5 0 0 1 1110.5 495.5 L 1110.5 345  A 5 5 0 0 0 1105.5 340.5 L 1069 340.5  " stroke-width="1" stroke="#555555" fill="none" />
  <path d="M 1307 497.5  A 3 3 0 0 0 1304 500.5 A 3 3 0 0 0 1307 503.5 A 3 3 0 0 0 1310 500.5 A 3 3 0 0 0 1307 497.5 Z M 1074.7 334.5  L 1068 340.5  L 1074.7 346.5  L 1072.4 340.5  L 1074.7 334.5  Z " fill-rule="nonzero" fill="#555555" stroke="none" />
</svg>