<?xml version="1.0" encoding="utf-8"?>
<svg version="1.1" xmlns:xlink="http://www.w3.org/1999/xlink" width="32px" height="32px" preserveAspectRatio="xMinYMid meet" viewBox="331 1022  32 30" xmlns="http://www.w3.org/2000/svg">
  <path d="M 262 1034.5  L 302.5 1034.5  A 1.5 1.5 0 0 1 304.5 1036 A 1.5 1.5 0 0 0 306 1037.5 L 347 1037.5  " stroke-width="1" stroke="#555555" fill="none" />
  <path d="M 264 1031.5  A 3 3 0 0 0 261 1034.5 A 3 3 0 0 0 264 1037.5 A 3 3 0 0 0 267 1034.5 A 3 3 0 0 0 264 1031.5 Z M 341.3 1043.5  L 348 1037.5  L 341.3 1031.5  L 343.6 1037.5  L 341.3 1043.5  Z " fill-rule="nonzero" fill="#555555" stroke="none" />
</svg>