<?xml version="1.0" encoding="utf-8"?>
<svg version="1.1" xmlns:xlink="http://www.w3.org/1999/xlink" width="109px" height="10px" preserveAspectRatio="xMinYMid meet" viewBox="612 1096  109 8" xmlns="http://www.w3.org/2000/svg">
  <path d="M 617.5 1068  L 617.5 1095  A 5 5 0 0 0 622.5 1100.5 L 711 1100.5  A 5 5 0 0 1 716.5 1105.5 L 716.5 1142  " stroke-width="1" stroke="#555555" fill="none" />
  <path d="M 617.5 1067  A 3 3 0 0 0 614.5 1070 A 3 3 0 0 0 617.5 1073 A 3 3 0 0 0 620.5 1070 A 3 3 0 0 0 617.5 1067 Z M 710.5 1136.3  L 716.5 1143  L 722.5 1136.3  L 716.5 1138.6  L 710.5 1136.3  Z " fill-rule="nonzero" fill="#555555" stroke="none" />
</svg>