<?xml version="1.0" encoding="utf-8"?>
<svg version="1.1" xmlns:xlink="http://www.w3.org/1999/xlink" width="18px" height="18px" preserveAspectRatio="xMinYMid meet" viewBox="1062 200  18 16" xmlns="http://www.w3.org/2000/svg">
  <defs>
    <mask fill="white" id="clip1048">
      <path d="M 1107.197 194  L 1136.803 194  L 1136.803 222  L 1107.197 222  Z M 1059 192  L 1192 192  L 1192 224  L 1059 224  Z " fill-rule="evenodd" />
    </mask>
  </defs>
  <path d="M 1107.197 208.5  L 1069 208.5  M 1136.803 208.5  L 1175 208.5  " stroke-width="1" stroke="#555555" fill="none" />
  <path d="M 1071 205.5  A 3 3 0 0 0 1068 208.5 A 3 3 0 0 0 1071 211.5 A 3 3 0 0 0 1074 208.5 A 3 3 0 0 0 1071 205.5 Z M 1169.3 214.5  L 1176 208.5  L 1169.3 202.5  L 1171.6 208.5  L 1169.3 214.5  Z " fill-rule="nonzero" fill="#555555" stroke="none" mask="url(#clip1048)" />
</svg>