<?xml version="1.0" encoding="utf-8"?>
<svg version="1.1" xmlns:xlink="http://www.w3.org/1999/xlink" width="18px" height="18px" preserveAspectRatio="xMinYMid meet" viewBox="879 233  18 16" xmlns="http://www.w3.org/2000/svg">
  <defs>
    <mask fill="white" id="clip114">
      <path d="M 937.8265 260  L 968.1735 260  L 968.1735 288  L 937.8265 288  Z M 879 229  L 1034 229  L 1034 326  L 879 326  Z " fill-rule="evenodd" />
    </mask>
  </defs>
  <path d="M 888.5 239  L 888.5 269  A 5 5 0 0 0 893.5 274.5 L 1013 274.5  A 5 5 0 0 1 1018.5 279.5 L 1018.5 309  " stroke-width="1" stroke="#555555" fill="none" mask="url(#clip114)" />
  <path d="M 888.5 238  A 3 3 0 0 0 885.5 241 A 3 3 0 0 0 888.5 244 A 3 3 0 0 0 891.5 241 A 3 3 0 0 0 888.5 238 Z M 1012.5 303.3  L 1018.5 310  L 1024.5 303.3  L 1018.5 305.6  L 1012.5 303.3  Z " fill-rule="nonzero" fill="#555555" stroke="none" mask="url(#clip114)" />
</svg>