<?xml version="1.0" encoding="utf-8"?>
<svg version="1.1" xmlns:xlink="http://www.w3.org/1999/xlink" width="18px" height="18px" preserveAspectRatio="xMinYMid meet" viewBox="932 1029  18 16" xmlns="http://www.w3.org/2000/svg">
  <defs>
    <mask fill="white" id="clip286">
      <path d="M 991.197 1023  L 1020.803 1023  L 1020.803 1051  L 991.197 1051  Z M 929 1021  L 1089 1021  L 1089 1053  L 929 1053  Z " fill-rule="evenodd" />
    </mask>
  </defs>
  <path d="M 991.197 1037.5  L 939 1037.5  M 1020.803 1037.5  L 1072 1037.5  " stroke-width="1" stroke="#555555" fill="none" />
  <path d="M 941 1034.5  A 3 3 0 0 0 938 1037.5 A 3 3 0 0 0 941 1040.5 A 3 3 0 0 0 944 1037.5 A 3 3 0 0 0 941 1034.5 Z M 1066.3 1043.5  L 1073 1037.5  L 1066.3 1031.5  L 1068.6 1037.5  L 1066.3 1043.5  Z " fill-rule="nonzero" fill="#555555" stroke="none" mask="url(#clip286)" />
</svg>