<?xml version="1.0" encoding="utf-8"?>
<svg version="1.1" xmlns:xlink="http://www.w3.org/1999/xlink" width="32px" height="32px" preserveAspectRatio="xMinYMid meet" viewBox="686 905  32 30" xmlns="http://www.w3.org/2000/svg">
  <defs>
    <mask fill="white" id="clip128">
      <path d="M 623.8265 896  L 654.1735 896  L 654.1735 924  L 623.8265 924  Z M 582 875  L 718 875  L 718 937  L 582 937  Z " fill-rule="evenodd" />
    </mask>
  </defs>
  <path d="M 591.5 885  L 591.5 905  A 5 5 0 0 0 596.5 910.5 L 697 910.5  A 5 5 0 0 1 702.5 915.5 L 702.5 920  " stroke-width="1" stroke="#555555" fill="none" mask="url(#clip128)" />
  <path d="M 591.5 884  A 3 3 0 0 0 588.5 887 A 3 3 0 0 0 591.5 890 A 3 3 0 0 0 594.5 887 A 3 3 0 0 0 591.5 884 Z M 696.5 914.3  L 702.5 921  L 708.5 914.3  L 702.5 916.6  L 696.5 914.3  Z " fill-rule="nonzero" fill="#555555" stroke="none" mask="url(#clip128)" />
</svg>