<?xml version="1.0" encoding="utf-8"?>
<svg version="1.1" xmlns:xlink="http://www.w3.org/1999/xlink" width="10px" height="21px" preserveAspectRatio="xMidYMin meet" viewBox="1099 324  8 21" xmlns="http://www.w3.org/2000/svg">
  <path d="M 1138 329.5  L 1108 329.5  A 5 5 0 0 0 1103.5 334.5 L 1103.5 335  A 5 5 0 0 1 1098.5 340.5 L 1069 340.5  " stroke-width="1" stroke="#555555" fill="none" />
  <path d="M 1136 326.5  A 3 3 0 0 0 1133 329.5 A 3 3 0 0 0 1136 332.5 A 3 3 0 0 0 1139 329.5 A 3 3 0 0 0 1136 326.5 Z M 1074.7 334.5  L 1068 340.5  L 1074.7 346.5  L 1072.4 340.5  L 1074.7 334.5  Z " fill-rule="nonzero" fill="#555555" stroke="none" />
</svg>