<?xml version="1.0" encoding="utf-8"?>
<svg version="1.1" xmlns:xlink="http://www.w3.org/1999/xlink" width="31px" height="10px" preserveAspectRatio="xMinYMid meet" viewBox="955 137  31 8" xmlns="http://www.w3.org/2000/svg">
  <path d="M 939 208.5  L 955 208.5  A 5 5 0 0 0 960.5 203.5 L 960.5 146  A 5 5 0 0 1 965.5 141.5 L 985 141.5  " stroke-width="1" stroke="#555555" fill="none" />
  <path d="M 941 205.5  A 3 3 0 0 0 938 208.5 A 3 3 0 0 0 941 211.5 A 3 3 0 0 0 944 208.5 A 3 3 0 0 0 941 205.5 Z M 979.3 147.5  L 986 141.5  L 979.3 135.5  L 981.6 141.5  L 979.3 147.5  Z " fill-rule="nonzero" fill="#555555" stroke="none" />
</svg>