<?xml version="1.0" encoding="utf-8"?>
<svg version="1.1" xmlns:xlink="http://www.w3.org/1999/xlink" width="10px" height="91px" preserveAspectRatio="xMidYMin meet" viewBox="1035 25  8 91" xmlns="http://www.w3.org/2000/svg">
  <defs>
    <mask fill="white" id="clip159">
      <path d="M 1032.5 16  L 1131.5 16  L 1131.5 44  L 1032.5 44  Z M 1030 14  L 1227 14  L 1227 125  L 1030 125  Z " fill-rule="evenodd" />
    </mask>
  </defs>
  <path d="M 1039.5 115  L 1039.5 35  A 5 5 0 0 1 1044.5 30.5 L 1210 30.5  " stroke-width="1" stroke="#555555" fill="none" mask="url(#clip159)" />
  <path d="M 1039.5 110  A 3 3 0 0 0 1036.5 113 A 3 3 0 0 0 1039.5 116 A 3 3 0 0 0 1042.5 113 A 3 3 0 0 0 1039.5 110 Z M 1204.3 36.5  L 1211 30.5  L 1204.3 24.5  L 1206.6 30.5  L 1204.3 36.5  Z " fill-rule="nonzero" fill="#555555" stroke="none" mask="url(#clip159)" />
</svg>