<?xml version="1.0" encoding="utf-8"?>
<svg version="1.1" xmlns:xlink="http://www.w3.org/1999/xlink" width="18px" height="18px" preserveAspectRatio="xMinYMid meet" viewBox="378 253  18 16" xmlns="http://www.w3.org/2000/svg">
  <defs>
    <mask fill="white" id="clip947">
      <path d="M 343.211 247  L 370.789 247  L 370.789 275  L 343.211 275  Z M 316 247  L 399 247  L 399 275  L 316 275  Z " fill-rule="evenodd" />
    </mask>
  </defs>
  <path d="M 343.211 261.5  L 326 261.5  M 370.789 261.5  L 389 261.5  " stroke-width="1" stroke="#555555" fill="none" />
  <path d="M 328 258.5  A 3 3 0 0 0 325 261.5 A 3 3 0 0 0 328 264.5 A 3 3 0 0 0 331 261.5 A 3 3 0 0 0 328 258.5 Z M 387 258.5  A 3 3 0 0 0 384 261.5 A 3 3 0 0 0 387 264.5 A 3 3 0 0 0 390 261.5 A 3 3 0 0 0 387 258.5 Z " fill-rule="nonzero" fill="#555555" stroke="none" mask="url(#clip947)" />
</svg>