<?xml version="1.0" encoding="utf-8"?>
<svg version="1.1" xmlns:xlink="http://www.w3.org/1999/xlink" width="38px" height="10px" preserveAspectRatio="xMinYMid meet" viewBox="855 240  38 8" xmlns="http://www.w3.org/2000/svg">
  <defs>
    <mask fill="white" id="clip1038">
      <path d="M 873.197 173  L 902.803 173  L 902.803 201  L 873.197 201  Z M 839 122  L 931 122  L 931 260  L 839 260  Z " fill-rule="evenodd" />
    </mask>
  </defs>
  <path d="M 921 131.5  L 893 131.5  A 5 5 0 0 0 888.5 136.5 L 888.5 239  A 5 5 0 0 1 883.5 244.5 L 856 244.5  " stroke-width="1" stroke="#555555" fill="none" mask="url(#clip1038)" />
  <path d="M 919 128.5  A 3 3 0 0 0 916 131.5 A 3 3 0 0 0 919 134.5 A 3 3 0 0 0 922 131.5 A 3 3 0 0 0 919 128.5 Z M 861.7 238.5  L 855 244.5  L 861.7 250.5  L 859.4 244.5  L 861.7 238.5  Z " fill-rule="nonzero" fill="#555555" stroke="none" mask="url(#clip1038)" />
</svg>