<?xml version="1.0" encoding="utf-8"?>
<svg version="1.1" xmlns:xlink="http://www.w3.org/1999/xlink" width="33px" height="10px" preserveAspectRatio="xMinYMid meet" viewBox="353 1121  33 8" xmlns="http://www.w3.org/2000/svg">
  <path d="M 354 1125.5  L 379.5 1125.5  A 1.5 1.5 0 0 0 381.5 1124 A 1.5 1.5 0 0 1 383 1122.5 L 409 1122.5  " stroke-width="1" stroke="#555555" fill="none" />
  <path d="M 356 1122.5  A 3 3 0 0 0 353 1125.5 A 3 3 0 0 0 356 1128.5 A 3 3 0 0 0 359 1125.5 A 3 3 0 0 0 356 1122.5 Z M 403.3 1128.5  L 410 1122.5  L 403.3 1116.5  L 405.6 1122.5  L 403.3 1128.5  Z " fill-rule="nonzero" fill="#555555" stroke="none" />
</svg>