<?xml version="1.0" encoding="utf-8"?>
<svg version="1.1" xmlns:xlink="http://www.w3.org/1999/xlink" width="36px" height="10px" preserveAspectRatio="xMinYMid meet" viewBox="510 1118  36 8" xmlns="http://www.w3.org/2000/svg">
  <path d="M 511 1122.5  L 539.5 1122.5  A 1.5 1.5 0 0 1 541.5 1124 A 1.5 1.5 0 0 0 543 1125.5 L 572 1125.5  " stroke-width="1" stroke="#555555" fill="none" />
  <path d="M 513 1119.5  A 3 3 0 0 0 510 1122.5 A 3 3 0 0 0 513 1125.5 A 3 3 0 0 0 516 1122.5 A 3 3 0 0 0 513 1119.5 Z M 566.3 1131.5  L 573 1125.5  L 566.3 1119.5  L 568.6 1125.5  L 566.3 1131.5  Z " fill-rule="nonzero" fill="#555555" stroke="none" />
</svg>