<?xml version="1.0" encoding="utf-8"?>
<svg version="1.1" xmlns:xlink="http://www.w3.org/1999/xlink" width="46px" height="10px" preserveAspectRatio="xMinYMid meet" viewBox="673 1121  46 8" xmlns="http://www.w3.org/2000/svg">
  <path d="M 674 1125.5  L 713.5 1125.5  A 0.5 0.5 0 0 0 714.5 1125 A 0.5 0.5 0 0 1 715 1124.5 L 754 1124.5  " stroke-width="1" stroke="#555555" fill="none" />
  <path d="M 676 1122.5  A 3 3 0 0 0 673 1125.5 A 3 3 0 0 0 676 1128.5 A 3 3 0 0 0 679 1125.5 A 3 3 0 0 0 676 1122.5 Z M 748.3 1130.5  L 755 1124.5  L 748.3 1118.5  L 750.6 1124.5  L 748.3 1130.5  Z " fill-rule="nonzero" fill="#555555" stroke="none" />
</svg>