<?xml version="1.0" encoding="utf-8"?>
<svg version="1.1" xmlns:xlink="http://www.w3.org/1999/xlink" width="32px" height="32px" preserveAspectRatio="xMinYMid meet" viewBox="961 1274  32 30" xmlns="http://www.w3.org/2000/svg">
  <defs>
    <mask fill="white" id="clip104">
      <path d="M 962.197 1201  L 991.803 1201  L 991.803 1244  L 962.197 1244  Z M 961 1145  L 993 1145  L 993 1306  L 961 1306  Z " fill-rule="evenodd" />
    </mask>
  </defs>
  <path d="M 977.5 1201  L 977.5 1155  M 977.5 1244  L 977.5 1289  " stroke-width="1" stroke="#555555" fill="none" />
  <path d="M 977.5 1154  A 3 3 0 0 0 974.5 1157 A 3 3 0 0 0 977.5 1160 A 3 3 0 0 0 980.5 1157 A 3 3 0 0 0 977.5 1154 Z M 971.5 1283.3  L 977.5 1290  L 983.5 1283.3  L 977.5 1285.6  L 971.5 1283.3  Z " fill-rule="nonzero" fill="#555555" stroke="none" mask="url(#clip104)" />
</svg>