<?xml version="1.0" encoding="utf-8"?>
<svg version="1.1" xmlns:xlink="http://www.w3.org/1999/xlink" width="41px" height="10px" preserveAspectRatio="xMinYMid meet" viewBox="233 1471  41 8" xmlns="http://www.w3.org/2000/svg">
  <path d="M 273 1475.5  L 239 1475.5  A 1 1 0 0 0 238.5 1476.5 A 1 1 0 0 1 237.5 1477.5 L 204 1477.5  " stroke-width="1" stroke="#555555" fill="none" />
  <path d="M 271 1472.5  A 3 3 0 0 0 268 1475.5 A 3 3 0 0 0 271 1478.5 A 3 3 0 0 0 274 1475.5 A 3 3 0 0 0 271 1472.5 Z M 209.7 1471.5  L 203 1477.5  L 209.7 1483.5  L 207.4 1477.5  L 209.7 1471.5  Z " fill-rule="nonzero" fill="#555555" stroke="none" />
</svg>