<?xml version="1.0" encoding="utf-8"?>
<svg version="1.1" xmlns:xlink="http://www.w3.org/1999/xlink" width="32px" height="32px" preserveAspectRatio="xMinYMid meet" viewBox="607 1391  32 30" xmlns="http://www.w3.org/2000/svg">
  <defs>
    <mask fill="white" id="clip110">
      <path d="M 607.8265 1411  L 638.1735 1411  L 638.1735 1439  L 607.8265 1439  Z M 607 1389  L 639 1389  L 639 1454  L 607 1454  Z " fill-rule="evenodd" />
    </mask>
  </defs>
  <path d="M 623.5 1411  L 623.5 1406  M 623.5 1439  L 623.5 1444  " stroke-width="1" stroke="#555555" fill="none" />
  <path d="M 623.5 1439  A 3 3 0 0 0 620.5 1442 A 3 3 0 0 0 623.5 1445 A 3 3 0 0 0 626.5 1442 A 3 3 0 0 0 623.5 1439 Z M 629.5 1411.7  L 623.5 1405  L 617.5 1411.7  L 623.5 1409.4  L 629.5 1411.7  Z " fill-rule="nonzero" fill="#555555" stroke="none" mask="url(#clip110)" />
</svg>