<?xml version="1.0" encoding="utf-8"?>
<svg version="1.1" xmlns:xlink="http://www.w3.org/1999/xlink" width="32px" height="32px" xmlns="http://www.w3.org/2000/svg">
  <g transform="matrix(1 0 0 1 -1262 -177 )">
    <path d="M 1278 177  C 1286.96 177  1294 184.04  1294 193  C 1294 201.96  1286.96 209  1278 209  C 1269.04 209  1262 201.96  1262 193  C 1262 184.04  1269.04 177  1278 177  Z " fill-rule="nonzero" fill="#ffffff" stroke="none" />
    <path d="M 1278 177.5  C 1286.68 177.5  1293.5 184.32  1293.5 193  C 1293.5 201.68  1286.68 208.5  1278 208.5  C 1269.32 208.5  1262.5 201.68  1262.5 193  C 1262.5 184.32  1269.32 177.5  1278 177.5  Z " stroke-width="1" stroke="#cccccc" fill="none" />
  </g>
</svg>